# xmcd
#
# Track frame offsets: 
#        150
#        57512
#        122487
#        150920
#        161212
#        208125
#        236437
#
# Disc length: 3463 seconds
#
# Revision: 1
# Processed by: cddbd v1.5.2PL0 Copyright (c) Steve Scherf et al.
# Submitted via: ExactAudioCopy v0.99pb5
#
DISCID=570d8507
DTITLE=The Fresk Quartet - Sallinen - String Quartet No.3 - No.4 - Sib
DTITLE=elius - String Quartet, op.56 - FreskQ
DYEAR=1991
DGENRE=Classical
TTITLE0=Sallinen - String Quartet No.3, ''Aspects of Peltoniemi Hintri
TTITLE0=k's Funeral March''
TTITLE1=Sallinen - String Quartet No.4, ''Silent Songs''
TTITLE2=Sibelius - String Quartet in D minor, op.56 ''Voces Intimae'' 
TTITLE2=I. Andante - Allegro molto moderato
TTITLE3=Sibelius - String Quartet in D minor, op.56 ''Voces Intimae'' 
TTITLE3=II. Vivace
TTITLE4=Sibelius - String Quartet in D minor, op.56 ''Voces Intimae'' 
TTITLE4=III. Adagio di molto
TTITLE5=Sibelius - String Quartet in D minor, op.56 ''Voces Intimae'' 
TTITLE5=IV. Allegretto (ma pesante)
TTITLE6=Sibelius - String Quartet in D minor, op.56 ''Voces Intimae'' 
TTITLE6=V. Allegro
EXTD=
EXTT0=
EXTT1=
EXTT2=
EXTT3=
EXTT4=
EXTT5=
EXTT6=
PLAYORDER=
